<?xml version="1.0" encoding="iso-8859-1"?>
<!-- Generator: Adobe Illustrator 16.0.0, SVG Export Plug-In . SVG Version: 6.00 Build 0)  -->
<!DOCTYPE svg PUBLIC "-//W3C//DTD SVG 1.1//EN" "http://www.w3.org/Graphics/SVG/1.1/DTD/svg11.dtd">
<svg version="1.1" id="Capa_1" xmlns="http://www.w3.org/2000/svg" xmlns:xlink="http://www.w3.org/1999/xlink" x="0px" y="0px"
	 width="47.967px" height="47.967px" viewBox="0 0 47.967 47.967" style="enable-background:new 0 0 47.967 47.967;"
	 xml:space="preserve">
<g>
	<g id="Lego_Rectangle">
		<g>
			<path d="M32.173,21.185c-0.001,0-0.026,0-0.027,0c-1.957-0.008-3.376-0.846-3.373-1.993c0.007-1.141,1.421-1.967,3.362-1.967
				c1.985,0.008,3.402,0.847,3.398,1.995C35.528,20.358,34.116,21.185,32.173,21.185z M32.156,18.535
				c-1.41,0-2.072,0.532-2.072,0.663c-0.001,0.131,0.664,0.671,2.067,0.678l0.021,0.655v-0.655c1.389,0,2.05-0.53,2.05-0.661
				C34.224,19.081,33.561,18.541,32.156,18.535z"/>
			<path d="M32.155,24.824c-0.008,0-0.017,0-0.024,0c-0.825-0.003-1.611-0.168-2.213-0.464c-1.014-0.499-1.161-1.173-1.16-1.531
				l0.016-3.638c0.002-0.361,0.295-0.652,0.655-0.652c0.001,0,0.002,0,0.003,0c0.361,0.001,0.653,0.296,0.652,0.658l-0.017,3.637
				c0,0.021,0.078,0.178,0.43,0.351c0.42,0.207,1.018,0.327,1.64,0.33c0.007,0,0.014,0,0.021,0c1.391,0,2.052-0.531,2.052-0.663
				l0.015-3.637c0.002-0.361,0.295-0.652,0.655-0.652c0.001,0,0.002,0,0.003,0c0.361,0.001,0.653,0.296,0.652,0.657l-0.016,3.637
				C35.514,23.98,34.07,24.824,32.155,24.824z"/>
		</g>
		<g>
			<path d="M39.753,17.025c-0.001,0-0.026,0-0.027,0c-1.959-0.008-3.377-0.846-3.373-1.993c0.007-1.14,1.421-1.967,3.362-1.967
				c1.985,0.008,3.402,0.848,3.397,1.995C43.108,16.199,41.695,17.025,39.753,17.025z M39.736,14.375
				c-1.41,0-2.072,0.532-2.072,0.663c-0.001,0.132,0.663,0.671,2.067,0.677l0.021,0.655v-0.655c1.389,0,2.05-0.53,2.05-0.66
				C41.804,14.922,41.141,14.381,39.736,14.375z"/>
			<path d="M39.737,20.664c-0.009,0-0.018,0-0.026,0c-1.959-0.009-3.377-0.848-3.373-1.995l0.016-3.637
				c0.002-0.361,0.295-0.652,0.655-0.652c0.001,0,0.002,0,0.003,0c0.361,0.001,0.653,0.296,0.652,0.658l-0.017,3.637
				c-0.001,0.132,0.663,0.673,2.068,0.68c1.453,0.004,2.072-0.53,2.072-0.662l0.015-3.637c0.002-0.361,0.295-0.652,0.655-0.652
				c0.001,0,0.002,0,0.003,0c0.36,0.001,0.652,0.296,0.651,0.657l-0.015,3.637C43.094,19.839,41.682,20.664,39.737,20.664z"/>
		</g>
		<g>
			<path d="M24.628,17.09c-0.001,0-0.026,0-0.027,0c-1.239-0.004-2.329-0.36-2.913-0.95c-0.303-0.305-0.462-0.666-0.46-1.043
				c0.005-1.139,1.42-1.966,3.364-1.966c1.983,0.008,3.4,0.848,3.396,1.995C27.983,16.264,26.57,17.09,24.628,17.09z M24.611,14.44
				c-1.411,0-2.073,0.531-2.073,0.662c0,0.007,0.014,0.049,0.08,0.116c0.266,0.268,1.001,0.559,1.988,0.562l0.021,0.655V15.78
				c1.389,0,2.05-0.53,2.05-0.66C26.679,14.987,26.016,14.446,24.611,14.44z"/>
			<path d="M24.614,20.728c-0.01,0-0.02,0-0.029,0c-1.959-0.008-3.377-0.847-3.373-1.995l0.016-3.637
				c0.002-0.361,0.302-0.625,0.658-0.652c0.361,0.001,0.653,0.296,0.652,0.658l-0.016,3.636c-0.001,0.132,0.663,0.673,2.068,0.68
				c0.008,0,0.016,0,0.022,0c1.389,0,2.05-0.531,2.05-0.663l0.015-3.636c0.002-0.362,0.271-0.648,0.658-0.652
				c0.36,0.001,0.652,0.296,0.651,0.657l-0.015,3.637C27.967,19.904,26.557,20.728,24.614,20.728z"/>
		</g>
		<g>
			<path d="M32.083,12.868c-0.001,0-0.026,0-0.027,0c-1.957-0.008-3.376-0.846-3.373-1.993c0.007-1.141,1.421-1.967,3.362-1.967
				c1.984,0.008,3.401,0.848,3.397,1.995C35.438,12.041,34.025,12.868,32.083,12.868z M32.066,10.218
				c-1.411,0-2.072,0.532-2.072,0.663c-0.001,0.131,0.664,0.671,2.067,0.678l0.021,0.655v-0.655c1.389,0,2.05-0.53,2.05-0.66
				C34.134,10.765,33.471,10.224,32.066,10.218z"/>
			<path d="M32.065,16.506c-0.009,0-0.018,0-0.025,0c-1.958-0.008-3.376-0.847-3.372-1.995l0.016-3.637
				c0.002-0.361,0.295-0.652,0.655-0.652c0.001,0,0.002,0,0.003,0c0.361,0.001,0.653,0.296,0.652,0.658l-0.017,3.637
				c-0.001,0.132,0.663,0.673,2.067,0.68c0.993-0.043,1.724-0.281,1.991-0.547c0.066-0.066,0.081-0.109,0.081-0.115l0.016-3.637
				c0.002-0.361,0.295-0.652,0.655-0.652c0.001,0,0.002,0,0.003,0c0.36,0.001,0.652,0.296,0.651,0.658l-0.016,3.636
				c-0.001,0.376-0.163,0.736-0.468,1.04C34.375,16.16,33.294,16.506,32.065,16.506z"/>
		</g>
		<g>
			<path d="M17.33,13.085c-0.001,0-0.024,0-0.025,0c-1.958-0.008-3.376-0.847-3.372-1.993c0.005-1.14,1.419-1.967,3.362-1.967
				c1.265,0.005,2.354,0.36,2.938,0.951c0.303,0.306,0.462,0.667,0.46,1.044C20.688,12.258,19.273,13.085,17.33,13.085z
				 M17.315,10.434c-1.412,0-2.073,0.531-2.073,0.662c-0.001,0.133,0.663,0.672,2.067,0.679l0.02,0.655v-0.655
				c1.391,0,2.053-0.53,2.053-0.661c0-0.007-0.014-0.049-0.08-0.117C19.037,10.729,18.301,10.438,17.315,10.434z"/>
			<path d="M17.316,16.723c-0.009,0-0.018,0-0.027,0c-1.238-0.004-2.327-0.36-2.912-0.95c-0.303-0.306-0.462-0.667-0.46-1.045
				l0.015-3.635c0.002-0.361,0.295-0.652,0.655-0.652c0.001,0,0.002,0,0.003,0c0.361,0.001,0.653,0.296,0.652,0.657l-0.015,3.636
				c0,0.008,0.014,0.051,0.08,0.118c0.266,0.268,1.001,0.559,1.987,0.562c0.007,0,0.014,0,0.021,0c0.976,0,1.704-0.282,1.97-0.546
				c0.067-0.066,0.081-0.109,0.081-0.115l0.016-3.638c0.002-0.361,0.295-0.652,0.655-0.652c0.001,0,0.002,0,0.003,0
				c0.361,0.001,0.653,0.296,0.652,0.658l-0.016,3.637c-0.001,0.376-0.163,0.736-0.468,1.04
				C19.624,16.377,18.544,16.723,17.316,16.723z"/>
		</g>
		<g>
			<path d="M24.91,8.925c-0.001,0-0.024,0-0.025,0c-1.238-0.005-2.327-0.36-2.911-0.951c-0.303-0.305-0.462-0.666-0.46-1.043
				c0.003-1.138,1.417-1.966,3.361-1.966c1.984,0.008,3.402,0.847,3.398,1.995C28.267,8.099,26.853,8.925,24.91,8.925z
				 M24.896,6.275c-1.411,0-2.072,0.53-2.072,0.661c0,0.007,0.014,0.05,0.08,0.116c0.265,0.268,1,0.559,1.986,0.563l0.02,0.655
				V7.615c1.391,0,2.054-0.531,2.054-0.662S26.3,6.281,24.896,6.275z"/>
			<path d="M24.896,12.563c-0.009,0-0.018,0-0.027,0c-1.238-0.005-2.327-0.361-2.912-0.951c-0.303-0.306-0.462-0.667-0.46-1.044
				l0.016-3.636c0.002-0.361,0.295-0.652,0.655-0.652c0.001,0,0.002,0,0.003,0c0.361,0.001,0.653,0.296,0.652,0.658l-0.016,3.637
				c0,0.006,0.014,0.049,0.08,0.116c0.266,0.269,1.001,0.559,1.987,0.563c0.007,0,0.014,0,0.021,0c1.389,0,2.049-0.53,2.049-0.662
				l0.018-3.637c0.002-0.361,0.295-0.652,0.655-0.652c0.001,0,0.002,0,0.003,0c0.36,0.001,0.652,0.296,0.651,0.658l-0.017,3.637
				C28.252,11.738,26.841,12.563,24.896,12.563z"/>
		</g>
		<g>
			<path d="M9.912,9.116c-0.001,0-0.026,0-0.027,0C7.927,9.107,6.508,8.269,6.512,7.122c0.007-1.141,1.421-1.967,3.362-1.967
				c1.984,0.008,3.402,0.847,3.399,1.994C13.267,8.289,11.854,9.116,9.912,9.116z M9.896,6.465c-1.411,0-2.073,0.532-2.073,0.663
				C7.82,7.259,8.485,7.799,9.891,7.806l0.021,0.655V7.806c1.389,0,2.051-0.531,2.051-0.662C11.963,7.013,11.299,6.472,9.896,6.465z
				"/>
			<path d="M9.896,12.754c-0.01,0-0.019,0-0.027,0c-1.957-0.008-3.376-0.847-3.373-1.994l0.016-3.638
				C6.515,6.761,6.808,6.47,7.167,6.47c0.001,0,0.002,0,0.003,0c0.36,0.001,0.652,0.296,0.651,0.657l-0.015,3.638
				c-0.001,0.131,0.664,0.672,2.068,0.679c0.635,0.019,1.22-0.112,1.641-0.315c0.351-0.169,0.431-0.325,0.431-0.347l0.017-3.637
				c0.002-0.361,0.295-0.652,0.655-0.652c0.001,0,0.002,0,0.003,0c0.361,0.001,0.653,0.296,0.652,0.658l-0.017,3.637
				c-0.002,0.358-0.156,1.032-1.173,1.521C11.486,12.596,10.711,12.754,9.896,12.754z"/>
		</g>
		<g>
			<path d="M17.555,4.956c-0.001,0-0.026,0-0.027,0c-1.959-0.008-3.377-0.847-3.373-1.993c0.006-1.14,1.42-1.967,3.362-1.967
				c1.985,0.008,3.402,0.848,3.398,1.995C20.91,4.13,19.497,4.956,17.555,4.956z M17.538,2.306c-1.411,0-2.073,0.532-2.073,0.663
				c-0.001,0.132,0.663,0.671,2.068,0.678l0.021,0.655V3.646c1.389,0,2.05-0.53,2.05-0.66C19.604,2.853,18.941,2.312,17.538,2.306z"
				/>
			<path d="M17.539,8.595c-0.009,0-0.018,0-0.027,0c-1.957-0.008-3.376-0.847-3.373-1.994l0.016-3.638
				c0.002-0.361,0.295-0.652,0.655-0.652c0.001,0,0.002,0,0.003,0c0.361,0.001,0.653,0.296,0.652,0.658l-0.016,3.637
				c-0.001,0.132,0.664,0.673,2.068,0.68c0.007,0,0.014,0,0.021,0c1.389,0,2.051-0.531,2.051-0.663l0.015-3.635
				c0.002-0.361,0.295-0.652,0.655-0.652c0.001,0,0.002,0,0.003,0c0.361,0.001,0.653,0.296,0.652,0.657l-0.015,3.636
				C20.894,7.77,19.481,8.595,17.539,8.595z"/>
		</g>
		<path d="M31.926,28.671c-0.161,0-0.323-0.039-0.475-0.12L0.524,11.81c-0.486-0.263-0.667-0.87-0.404-1.355
			c0.264-0.486,0.87-0.667,1.355-0.403l30.926,16.74c0.486,0.263,0.667,0.87,0.404,1.354C32.625,28.48,32.281,28.671,31.926,28.671z
			"/>
		<path d="M12.583,7.381c-0.396,0-0.772-0.238-0.929-0.629c-0.205-0.513,0.045-1.095,0.558-1.3l1.856-0.742
			c0.513-0.204,1.095,0.044,1.3,0.558c0.205,0.513-0.045,1.095-0.558,1.3L12.955,7.31C12.833,7.357,12.708,7.381,12.583,7.381z"/>
		<path d="M21.895,7.607c-0.157,0-0.316-0.037-0.465-0.115l-1.229-0.647c-0.489-0.258-0.677-0.862-0.419-1.351
			c0.258-0.488,0.863-0.675,1.351-0.418l1.229,0.647c0.489,0.258,0.677,0.862,0.419,1.351C22.601,7.413,22.253,7.607,21.895,7.607z"
			/>
		<path d="M29.252,11.342c-0.159,0-0.321-0.038-0.474-0.119l-1.117-0.601c-0.486-0.261-0.669-0.868-0.407-1.354
			s0.864-0.67,1.354-0.408l1.118,0.601c0.486,0.261,0.669,0.868,0.407,1.354C29.954,11.151,29.608,11.342,29.252,11.342z"/>
		<path d="M37.007,15.254c-0.147,0-0.298-0.033-0.439-0.102l-1.748-0.857c-0.495-0.243-0.699-0.842-0.457-1.338
			c0.241-0.495,0.844-0.7,1.339-0.458l1.748,0.857c0.495,0.243,0.699,0.842,0.456,1.338C37.732,15.049,37.377,15.254,37.007,15.254z
			"/>
		<g>
			<path d="M31.906,46.971c-0.167,0-0.334-0.041-0.484-0.125L0.537,29.721c-0.317-0.177-0.515-0.512-0.515-0.875V10.915
				c0-0.411,0.252-0.78,0.635-0.931l5.723-2.247c0.512-0.202,1.095,0.05,1.296,0.565C7.877,8.816,7.625,9.397,7.11,9.598
				l-5.088,1.998v16.66L30.91,44.273l0.019-16.575c0-0.362,0.196-0.696,0.513-0.873l15.039-8.388
				c0.482-0.269,1.092-0.096,1.36,0.386c0.27,0.482,0.097,1.092-0.386,1.361l-14.527,8.102l-0.02,17.685
				c0,0.354-0.188,0.682-0.493,0.86C32.257,46.926,32.083,46.971,31.906,46.971z"/>
			<path d="M31.908,46.971c-0.341,0-0.671-0.173-0.858-0.484c-0.284-0.473-0.131-1.088,0.342-1.372l14.558-8.75V19.941l-3.536-1.732
				c-0.495-0.243-0.7-0.842-0.458-1.338c0.244-0.496,0.843-0.7,1.339-0.458l4.096,2.007c0.343,0.168,0.561,0.516,0.561,0.898V36.93
				c0,0.351-0.185,0.676-0.484,0.856l-15.041,9.042C32.26,46.926,32.083,46.971,31.908,46.971z"/>
		</g>
	</g>
	<g>
	</g>
	<g>
	</g>
	<g>
	</g>
	<g>
	</g>
	<g>
	</g>
	<g>
	</g>
	<g>
	</g>
	<g>
	</g>
	<g>
	</g>
	<g>
	</g>
	<g>
	</g>
	<g>
	</g>
	<g>
	</g>
	<g>
	</g>
	<g>
	</g>
</g>
<g>
</g>
<g>
</g>
<g>
</g>
<g>
</g>
<g>
</g>
<g>
</g>
<g>
</g>
<g>
</g>
<g>
</g>
<g>
</g>
<g>
</g>
<g>
</g>
<g>
</g>
<g>
</g>
<g>
</g>
</svg>
