<?xml version="1.0" encoding="iso-8859-1"?>
<!-- Generator: Adobe Illustrator 19.0.0, SVG Export Plug-In . SVG Version: 6.00 Build 0)  -->
<svg version="1.1" id="Capa_1" xmlns="http://www.w3.org/2000/svg" xmlns:xlink="http://www.w3.org/1999/xlink" x="0px" y="0px"
	 viewBox="0 0 511.993 511.993" style="enable-background:new 0 0 511.993 511.993;" xml:space="preserve">
<g>
	<path style="fill:#7383BF;" d="M390.502,478.387H173.553c-4.79,0-8.678-3.879-8.678-8.678c0-4.799,3.888-8.678,8.678-8.678h216.949
		c4.79,0,8.678,3.879,8.678,8.678C399.18,474.508,395.292,478.387,390.502,478.387z"/>
	<path style="fill:#7383BF;" d="M503.316,478.387h-78.102c-4.79,0-8.678-3.879-8.678-8.678c0-4.799,3.888-8.678,8.678-8.678h78.102
		c4.79,0,8.678,3.879,8.678,8.678C511.993,474.508,508.106,478.387,503.316,478.387z"/>
</g>
<g>
	<path style="fill:#D5354E;" d="M321.087,434.997c-2.543,0-5.068-1.111-6.777-3.254c-2.994-3.749-2.386-9.207,1.354-12.201
		l43.39-34.712c3.74-3.003,9.207-2.386,12.201,1.354c2.994,3.749,2.386,9.207-1.354,12.201l-43.39,34.712
		C324.897,434.381,322.987,434.997,321.087,434.997z"/>
	<path style="fill:#D5354E;" d="M407.867,408.963c-2.638,0-5.241-1.198-6.951-3.471c-2.872-3.827-2.1-9.268,1.736-12.14
		l34.712-26.034c3.836-2.864,9.277-2.1,12.149,1.736c2.872,3.827,2.1,9.268-1.736,12.14l-34.712,26.034
		C411.503,408.399,409.672,408.963,407.867,408.963z"/>
</g>
<path style="fill:#366DB6;" d="M437.163,188.5L289.89,41.226c-10.162-10.162-26.65-10.162-36.812,0L121.485,172.81l184.086,184.086
	l131.584-131.584C447.325,215.141,447.325,198.661,437.163,188.5z"/>
<path style="fill:#F76363;" d="M154.895,470.768L7.621,323.485c-10.162-10.162-10.162-26.65,0-36.812L130.345,163.95
	l184.086,184.086L191.707,470.768C181.537,480.93,165.057,480.93,154.895,470.768z"/>
<g>
</g>
<g>
</g>
<g>
</g>
<g>
</g>
<g>
</g>
<g>
</g>
<g>
</g>
<g>
</g>
<g>
</g>
<g>
</g>
<g>
</g>
<g>
</g>
<g>
</g>
<g>
</g>
<g>
</g>
</svg>
