<?xml version="1.0" encoding="iso-8859-1"?>
<!-- Generator: Adobe Illustrator 16.0.0, SVG Export Plug-In . SVG Version: 6.00 Build 0)  -->
<!DOCTYPE svg PUBLIC "-//W3C//DTD SVG 1.1//EN" "http://www.w3.org/Graphics/SVG/1.1/DTD/svg11.dtd">
<svg xmlns="http://www.w3.org/2000/svg" xmlns:xlink="http://www.w3.org/1999/xlink" version="1.1" id="Capa_1" x="0px" y="0px" viewBox="0 0 311.042 311.042" style="enable-background:new 0 0 311.042 311.042;" xml:space="preserve">
<g>
	<path d="M5.959,168.687c0-45.567,23.046-85.226,57.628-111.059c8.16-6.095,24.511-8.806,31.083-1.015   c4.071,4.816,5.527,10.614,5.693,16.117c0.315,10.182-10.235,22.578-17.498,29.718c-17.348,17.069-28.28,40.214-28.28,66.377   c0,54.733,44.37,96.228,99.103,96.228c54.752,0,99.133-41.494,99.133-96.228c0-27.898-10.652-52.389-28.342-69.715   c-7.272-7.127-17.145-19.726-15.559-29.792c0.912-5.81,3.429-11.565,8.917-15.712c8.13-6.137,24.409-1.75,32.45,4.504   c33.188,25.829,54.793,65.305,54.793,110.578c0,80.212-71.133,142.355-151.375,142.355C73.501,311.048,5.959,248.898,5.959,168.687   z" fill="#FFFFFF"/>
	<path d="M156.596,183.698c-10.01,0-23.917-11.733-23.917-21.737V22.479c0-1.402,0.234-22.479,23.206-22.479   c10.007,0,23.188,5.257,23.188,22.479v139.482C179.078,171.965,166.648,183.698,156.596,183.698z" fill="#FFFFFF"/>
</g>
</svg>
