<?xml version="1.0" encoding="iso-8859-1"?>
<!-- Generator: Adobe Illustrator 19.0.0, SVG Export Plug-In . SVG Version: 6.00 Build 0)  -->
<svg version="1.1" id="Capa_1" xmlns="http://www.w3.org/2000/svg" xmlns:xlink="http://www.w3.org/1999/xlink" x="0px" y="0px"
	 viewBox="0 0 496 496" style="enable-background:new 0 0 496 496;" xml:space="preserve">
<g>
	<g>
		<g>
			<path d="M388.832,321.176L320,298.232V288h-16v15.008l-11.944,47.768L259.744,312h-23.496l-32.312,38.776L192,303.008V288h-16
				v10.232l-68.832,22.944c-31,10.336-53.6,36.784-58.976,69.016L30.552,496H465.44L447.8,390.192
				C442.44,357.96,419.84,331.512,388.832,321.176z M120.84,480l7.12-71.2l-15.92-1.592l-7.28,72.8H49.448l14.528-87.176
				c4.392-26.376,22.888-48.008,48.256-56.472l34.392-11.464l-20.856,55.624l39.192,15.68l-14.328,28.648L192,480H120.84z
				 M266.056,480l21.736-94.2l-15.592-3.6L249.632,480h-3.264L223.8,382.2l-15.592,3.6l21.736,94.2H212l-42.632-56.84l17.672-35.352
				l-40.808-16.32l19.912-53.096l12.192-4.072l17.728,70.904L243.744,328h8.504l47.688,57.224l17.728-70.904l12.184,4.064
				l19.912,53.096l-40.808,16.32l17.672,35.352L284,480H266.056z M391.24,480l-7.28-72.8l-15.92,1.592l7.12,71.2H304l41.368-55.16
				l-14.328-28.648l39.192-15.68l-20.856-55.624l34.392,11.464c25.368,8.456,43.856,30.096,48.256,56.472L446.552,480H391.24z"/>
			<path d="M472,136c0-17.904-9.864-33.512-24.432-41.768C447.84,92.168,448,90.088,448,88c0-26.472-21.528-48-48-48
				c-8.928,0-17.616,2.608-25.152,7.256C368.36,42.712,360.504,40,352,40c-6.568,0-12.92,1.736-18.632,4.76
				C314.56,17.744,283.336,0,248,0s-66.56,17.744-85.368,44.76C156.92,41.736,150.568,40,144,40c-8.504,0-16.36,2.712-22.848,7.256
				C113.616,42.608,104.928,40,96,40c-26.472,0-48,21.528-48,48c0,2.088,0.16,4.168,0.432,6.232C33.864,102.488,24,118.096,24,136
				c0,7.368,1.76,14.544,4.976,21.088C25.904,162.744,24,169.12,24,176c0,13.128,6.448,24.704,16.248,32H40c0,30.88,25.12,56,56,56
				c13.096,0,25.512-4.464,35.496-12.68c6.28,2.976,13.232,4.68,20.504,4.68c5.976,0,11.896-1.144,17.432-3.296
				c0.12,0.12,0.224,0.256,0.344,0.376l31.2,31.2c7.552,7.56,17.592,11.72,28.28,11.72h37.496c10.68,0,20.728-4.16,28.28-11.712
				l31.2-31.2c0.12-0.12,0.224-0.256,0.344-0.384C332.104,254.856,338.024,256,344,256c7.272,0,14.224-1.704,20.504-4.68
				c9.984,8.216,22.4,12.68,35.496,12.68c30.88,0,56-25.12,56-56h-0.248c9.8-7.296,16.248-18.872,16.248-32
				c0-6.88-1.904-13.256-4.976-18.912C470.24,150.544,472,143.368,472,136z M152,240c-13.72,0-25.904-8.72-30.312-21.704
				l-15.152,5.152c2.368,6.968,6.272,13.072,11.2,18.096C111.32,245.72,103.84,248,96,248c-19.568,0-35.832-14.144-39.264-32.736
				C59.096,215.704,61.512,216,64,216c12.024,0,23.304-5.336,30.936-14.648L82.568,191.2C77.984,196.8,71.216,200,64,200
				c-13.232,0-24-10.768-24-24s10.768-24,24-24v-16c-8.6,0-16.528,2.792-23.064,7.432C40.36,141.008,40,138.528,40,136
				c0-17.648,14.352-32,32-32c12.904,0,24.488,7.688,29.504,19.584l14.744-6.216C108.728,99.528,91.36,88,72,88
				c-2.712,0-5.36,0.28-7.952,0.712C64.04,88.472,64,88.24,64,88c0-17.648,14.352-32,32-32c4.872,0,9.608,1.216,13.936,3.32
				C106.248,65.376,104,72.408,104,80h16c0-13.232,10.768-24,24-24c3.72,0,7.312,0.944,10.592,2.568
				C147.88,72.32,144,87.696,144,104v32.808c-18.232,3.72-32,19.872-32,39.192c0,20.528,15.6,37.296,35.536,39.552
				c2.44,8.4,6.12,16.392,10.968,23.72C156.368,239.712,154.2,240,152,240z M144.376,198.64C134.896,195.44,128,186.552,128,176
				c0-10.416,6.712-19.216,16-22.528v37.392C144,193.48,144.152,196.072,144.376,198.64z M335.992,190.864
				c0,19.232-7.488,37.312-21.088,50.912l-31.192,31.2c-4.464,4.464-10.648,7.024-16.968,7.024h-37.496
				c-6.32,0-12.496-2.56-16.968-7.024l-31.2-31.2c-13.6-13.6-21.088-31.68-21.088-50.912V152c0,22.056,17.944,40,40,40
				c22.056,0,40-17.944,40-40h16c0,22.056,17.944,40,40,40c22.056,0,40-17.944,40-40V190.864z M176,152c0-13.232,10.768-24,24-24
				s24,10.768,24,24s-10.768,24-24,24S176,165.232,176,152z M272,152c0-13.232,10.768-24,24-24s24,10.768,24,24s-10.768,24-24,24
				S272,165.232,272,152z M336,136h-3.392c-6.192-14.104-20.248-24-36.608-24c-16.36,0-30.416,9.896-36.608,24h-22.784
				c-6.192-14.104-20.248-24-36.608-24s-30.416,9.896-36.608,24H160v-32c0-48.52,39.48-88,88-88s88,39.48,88,88V136z M456,176
				c0,13.232-10.768,24-24,24c-7.216,0-13.984-3.2-18.568-8.792l-12.368,10.152C408.696,210.664,419.976,216,432,216
				c2.488,0,4.904-0.296,7.264-0.736C435.832,233.856,419.568,248,400,248c-7.84,0-15.32-2.28-21.736-6.456
				c4.928-5.024,8.832-11.128,11.2-18.096l-15.152-5.152C369.904,231.28,357.72,240,344,240c-2.2,0-4.368-0.288-6.504-0.728
				c4.856-7.336,8.528-15.32,10.968-23.72C368.4,213.296,384,196.528,384,176c0-19.312-13.768-35.472-32-39.192V104
				c0-16.304-3.88-31.68-10.592-45.432C344.688,56.944,348.28,56,352,56c13.232,0,24,10.768,24,24h16
				c0-7.592-2.248-14.624-5.936-20.68C390.392,57.216,395.128,56,400,56c17.648,0,32,14.352,32,32c0,0.24-0.04,0.472-0.048,0.712
				C429.36,88.28,426.712,88,424,88c-19.36,0-36.728,11.528-44.248,29.36l14.744,6.216C399.512,111.688,411.096,104,424,104
				c17.648,0,32,14.352,32,32c0,2.528-0.36,5.008-0.936,7.432C448.528,138.792,440.6,136,432,136v16
				C445.232,152,456,162.768,456,176z M351.624,198.64c0.224-2.568,0.376-5.16,0.376-7.776v-37.392c9.288,3.312,16,12.112,16,22.528
				C368,186.552,361.104,195.44,351.624,198.64z"/>
			<path d="M189.088,62.592l13.088,9.208C212.664,56.896,229.8,48,248,48V32C224.6,32,202.576,43.44,189.088,62.592z"/>
			<path d="M176.56,95.016l15.872,1.976c0.6-4.808,1.824-9.512,3.64-13.992l-14.832-6.008
				C178.904,82.76,177.328,88.824,176.56,95.016z"/>
		</g>
	</g>
</g>
<g>
</g>
<g>
</g>
<g>
</g>
<g>
</g>
<g>
</g>
<g>
</g>
<g>
</g>
<g>
</g>
<g>
</g>
<g>
</g>
<g>
</g>
<g>
</g>
<g>
</g>
<g>
</g>
<g>
</g>
</svg>
