<?xml version="1.0" encoding="iso-8859-1"?>
<!-- Generator: Adobe Illustrator 18.1.1, SVG Export Plug-In . SVG Version: 6.00 Build 0)  -->
<svg version="1.1" id="Capa_1" xmlns="http://www.w3.org/2000/svg" xmlns:xlink="http://www.w3.org/1999/xlink" x="0px" y="0px"
	 viewBox="0 0 62.129 62.129" style="enable-background:new 0 0 62.129 62.129;" xml:space="preserve">
<g>
	<g>
		<path style="fill:#010002;" d="M34.068,11.03c3.001,0.35,5.715-1.832,6.056-4.867c0.34-3.037-1.813-5.78-4.818-6.127
			c-2.997-0.347-5.712,1.833-6.055,4.869C28.91,7.941,31.065,10.683,34.068,11.03z"/>
		<path style="fill:#010002;" d="M26.004,26.927l4.751-11.555l0.271,0.589c0.076,0.168,0.231,0.286,0.413,0.317
			c0.027,0.006,0.058,0.007,0.088,0.007c0.151,0,0.296-0.062,0.4-0.173l1.307-1.384c0.148-0.158,0.19-0.39,0.111-0.592
			c-0.076-0.205-0.271-0.343-0.482-0.353l-1.619-0.086l-0.859-2.406c-0.074-0.213-0.273-0.36-0.499-0.369
			c-0.219-0.021-0.43,0.119-0.523,0.324l-1.671,3.672c-0.09,0.203-0.056,0.442,0.093,0.609c0.107,0.119,0.258,0.184,0.41,0.184
			c0.061,0,0.121-0.01,0.178-0.03l1.575-0.851l-6.03,11.522L26.004,26.927z"/>
		<path style="fill:#010002;" d="M45.346,22.517c-2.276,0.17-4.554,0.34-6.83,0.512c-0.934-2.378-1.969-5.574-2.845-7.179
			c-0.707-1.295-1.485-1.078-1.976-0.223c-1.803,3.142-6.6,12.9-6.6,12.9l-5.013-1.358l6.359-15.85
			c-0.306-0.083-1.04-0.514-2.362-0.071L7.966,15.492c-1.334,0.311-2.165,1.66-1.856,3.009c0.308,1.35,1.642,2.192,2.976,1.877
			l11.923-2.792c-1.729,3.111-3.396,6.261-5.008,9.435c0,0-8.631,14.242-7.318,14.826c1.312,0.582,7.024-5.915,7.024-5.915v22.81
			c0,1.87,1.5,3.387,3.349,3.387c1.85,0,3.348-1.517,3.348-3.387c0,0-1.222-16.088,3.485-25.847
			c4.706-9.765,6.54-12.479,6.54-12.479s1.768,4.227,2.483,6.019c0.288,0.722,0.775,2.064,2.462,1.897
			c2.866-0.283,5.105-0.43,7.979-0.646C48.608,27.437,48.631,22.271,45.346,22.517z"/>
		<path style="fill:#010002;" d="M42.029,20.311c-0.386,0-0.699,0.313-0.699,0.699c0,0.387,0.313,0.7,0.699,0.7h13.355
			c0.386,0,0.699-0.313,0.699-0.7c0-0.386-0.313-0.699-0.699-0.699H42.029z"/>
		<path style="fill:#010002;" d="M46.725,19.246h3.963c0.342,0,0.623-0.268,0.64-0.608l0.287-5.778
			c0.009-0.175-0.055-0.346-0.176-0.473s-0.288-0.199-0.464-0.199h-4.537c-0.176,0-0.343,0.072-0.464,0.199
			s-0.185,0.298-0.176,0.473l0.287,5.778C46.102,18.979,46.383,19.246,46.725,19.246z M50.979,12.832l-0.056,1.095l-4.435-0.047
			l-0.055-1.048H50.979z"/>
	</g>
</g>
<g>
</g>
<g>
</g>
<g>
</g>
<g>
</g>
<g>
</g>
<g>
</g>
<g>
</g>
<g>
</g>
<g>
</g>
<g>
</g>
<g>
</g>
<g>
</g>
<g>
</g>
<g>
</g>
<g>
</g>
</svg>
