<svg viewBox="-18 0 512 512" width="25px" height="25px"  xmlns="http://www.w3.org/2000/svg"><path d="m194.207031 317.792969v-199.890625c0-36.34375-23.144531-69.722656-58.121093-79.597656-51.660157-14.601563-100.777344 26.410156-100.777344 76.453124v44.140626c0 9.753906-7.898438 17.652343-17.652344 17.652343s-17.65625-7.898437-17.65625-17.652343v-44.140626c0-63.117187 51.640625-114.757812 114.757812-114.757812 63.117188 0 114.757813 51.640625 114.757813 114.757812v203.035157zm0 0" fill="#e7eced"/><path d="m450.207031 512h-282.484375c-14.625 0-26.480468-11.855469-26.480468-26.484375v-229.515625c0-14.628906 11.855468-26.484375 26.480468-26.484375h282.484375c14.628907 0 26.484375 11.855469 26.484375 26.484375v229.515625c0 14.628906-11.855468 26.484375-26.484375 26.484375zm0 0" fill="#61b872"/><path d="m344.277344 335.449219c0-19.5-15.8125-35.3125-35.3125-35.3125s-35.308594 15.8125-35.308594 35.3125c0 13.039062 7.140625 24.292969 17.652344 30.410156l-8.824219 75.519531h52.964844l-8.828125-75.519531c10.511718-6.117187 17.65625-17.371094 17.65625-30.410156zm0 0" fill="#3d6f44"/></svg>
