<svg id="Capa_1" enable-background="new 0 0 512 512" height="51" viewBox="0 0 512 512" width="512" xmlns="http://www.w3.org/2000/svg"><g><g><path d="m496.547 43.103h-414.253l-1 2.483v57.811h428.706l2-1.117v-43.724c0-8.535-6.918-15.453-15.453-15.453z" fill="#26a6fe"/><path d="m82.294 103.279v-60.176h-66.841c-8.535 0-15.453 6.918-15.453 15.453v43.723l2 1z" fill="#60b7ff"/><g><path d="m501.698 468.897h-491.396c-5.69 0-10.302-4.612-10.302-10.302v-356.316h512v356.316c0 5.69-4.612 10.302-10.302 10.302z" fill="#eaf6ff"/></g><g><g><path d="m460.849 237.374h-109.278c-2.845 0-5.151 2.306-5.151 5.151v136.781h119.58v-136.782c0-2.844-2.306-5.15-5.151-5.15z" fill="#fff"/></g></g><path d="m460.824 144.108h-303.824l-1 1.681v52.64l1 1.829h303.824c2.859 0 5.176-2.317 5.176-5.176v-45.798c0-2.859-2.317-5.176-5.176-5.176z" fill="#fff"/><g><path d="m33.481 458.595v-356.316h-33.481v356.316c0 5.689 4.612 10.302 10.302 10.302h33.481c-5.69 0-10.302-4.612-10.302-10.302z" fill="#d8ecfe"/></g></g><g><path d="m44.691 144.108c-2.859 0-5.176 2.317-5.176 5.176v45.798c0 2.859 2.317 5.176 5.176 5.176h112.309v-56.15z" fill="#fe7701"/></g><g><path d="m74.569 195.082v-45.798c0-2.859 2.317-5.176 5.176-5.176h-35.054c-2.859 0-5.176 2.317-5.176 5.176v45.798c0 2.859 2.317 5.176 5.176 5.176h35.054c-2.859 0-5.176-2.318-5.176-5.176z" fill="#f46700"/></g><g><g><g><path d="m408.907 269.225 7.132 14.45c.438.888 1.285 1.503 2.265 1.646l15.947 2.317c2.467.359 3.453 3.391 1.667 5.131l-11.539 11.248c-.709.691-1.032 1.687-.865 2.663l2.724 15.882c.421 2.457-2.158 4.331-4.365 3.171l-14.263-7.499c-.876-.461-1.923-.461-2.8 0l-14.263 7.499c-2.207 1.16-4.786-.714-4.365-3.171l2.724-15.882c.167-.976-.156-1.971-.865-2.663l-11.539-11.248c-1.785-1.74-.8-4.772 1.667-5.131l15.946-2.317c.98-.142 1.827-.758 2.265-1.646l7.131-14.45c1.105-2.236 4.293-2.236 5.396 0z" fill="#fed402"/></g><g><path d="m399.592 318.477 2.724-15.882c.167-.976-.156-1.972-.865-2.663l-11.539-11.248c-.762-.743-1.016-1.721-.868-2.627l-10.874 1.58c-2.467.359-3.452 3.391-1.667 5.131l11.539 11.248c.709.691 1.032 1.687.865 2.663l-2.724 15.882c-.422 2.457 2.158 4.331 4.365 3.171l9.55-5.021c-.433-.609-.652-1.385-.506-2.234z" fill="#fac600"/></g><g><path d="m431.914 361.101h-51.408c-4.143 0-7.5-3.358-7.5-7.5s3.357-7.5 7.5-7.5h51.408c4.143 0 7.5 3.358 7.5 7.5s-3.358 7.5-7.5 7.5z" fill="#fed402"/></g></g></g><g><g><circle cx="464.948" cy="72.628" fill="#fed402" r="7.5"/></g><g><circle cx="441.948" cy="72.628" fill="#0ed290" r="7.5"/></g><g><circle cx="418.948" cy="72.628" fill="#fff" r="7.5"/></g></g><g><g><g><path d="m298.237 251.315h-251.222c-4.143 0-7.5-3.358-7.5-7.5s3.357-7.5 7.5-7.5h251.223c4.143 0 7.5 3.358 7.5 7.5s-3.358 7.5-7.501 7.5z" fill="#c4e2ff"/></g><g><g><path d="m298.237 284.842h-251.222c-4.143 0-7.5-3.358-7.5-7.5s3.357-7.5 7.5-7.5h251.223c4.143 0 7.5 3.358 7.5 7.5s-3.358 7.5-7.501 7.5z" fill="#c4e2ff"/></g></g><g><g><path d="m298.237 345.828h-117.374c-4.143 0-7.5-3.358-7.5-7.5s3.357-7.5 7.5-7.5h117.374c4.143 0 7.5 3.358 7.5 7.5s-3.357 7.5-7.5 7.5z" fill="#c4e2ff"/></g></g><g><path d="m298.237 379.355h-117.374c-4.143 0-7.5-3.358-7.5-7.5s3.357-7.5 7.5-7.5h117.374c4.143 0 7.5 3.358 7.5 7.5s-3.357 7.5-7.5 7.5z" fill="#c4e2ff"/></g><g><path d="m242.827 412.882h-61.964c-4.143 0-7.5-3.358-7.5-7.5s3.357-7.5 7.5-7.5h61.964c4.143 0 7.5 3.358 7.5 7.5s-3.357 7.5-7.5 7.5z" fill="#c4e2ff"/></g></g><g><g><circle cx="94.777" cy="370.012" fill="#fed402" r="52.024"/></g></g><g><path d="m75.718 370.012c0-22.969 14.891-42.447 35.541-49.343-5.182-1.73-10.72-2.682-16.483-2.682-28.732 0-52.024 23.292-52.024 52.024s23.292 52.024 52.024 52.024c5.763 0 11.301-.951 16.483-2.682-20.649-6.894-35.541-26.372-35.541-49.341z" fill="#fac600"/></g></g><g><path d="m434.222 179.683h-40.178c-4.143 0-7.5-3.358-7.5-7.5s3.357-7.5 7.5-7.5h40.178c4.143 0 7.5 3.358 7.5 7.5s-3.358 7.5-7.5 7.5z" fill="#0ed290"/></g><g><path d="m346.42 423.327c0 2.845 2.306 5.151 5.151 5.151h109.278c2.845 0 5.151-2.306 5.151-5.151v-44.022h-119.58z" fill="#0ed290"/></g><g><path d="m372.316 423.327v-44.022h-25.896v44.022c0 2.845 2.306 5.151 5.151 5.151h25.896c-2.845 0-5.151-2.306-5.151-5.151z" fill="#00c285"/></g></g></svg>
