<?xml version="1.0" standalone="no"?>
<!DOCTYPE svg PUBLIC "-//W3C//DTD SVG 20010904//EN"
 "http://www.w3.org/TR/2001/REC-SVG-20010904/DTD/svg10.dtd">
<svg version="1.0" xmlns="http://www.w3.org/2000/svg"
 width="233pt" height="50pt" viewBox="0 0 233 216"
 preserveAspectRatio="xMidYMid meet">
<metadata>
Created by potrace 1.15, written by Peter Selinger 2001-2017
</metadata>
<g transform="translate(0.000000,216.000000) scale(0.100000,-0.100000)"
fill="#000000" stroke="none">
<path d="M1494 1959 c-52 -15 -126 -71 -160 -122 -37 -54 -59 -141 -50 -201 8
-52 46 -133 79 -168 14 -15 22 -29 19 -33 -3 -3 -260 -5 -571 -5 -311 0 -574
0 -584 0 -16 0 -17 -18 -15 -272 l3 -273 80 -3 c118 -4 121 -3 130 65 19 159
109 244 243 230 54 -6 119 -44 130 -75 3 -11 -61 -80 -455 -484 l-144 -146 3
-114 3 -113 944 -3 c689 -1 947 1 957 9 10 8 14 41 14 120 0 121 -7 134 -64
118 -17 -5 -57 -9 -89 -9 -74 0 -128 27 -164 82 -28 41 -28 42 -31 242 -2 125
0 215 7 237 14 46 87 114 137 128 53 15 77 14 124 -5 29 -12 44 -14 52 -6 10
10 12 261 3 271 -3 2 -74 3 -160 3 -85 -1 -155 1 -155 4 0 4 12 20 27 38 69
81 91 200 56 302 -23 67 -110 154 -177 177 -53 18 -141 21 -192 6z m151 -60
c54 -14 118 -67 147 -123 31 -57 31 -155 1 -212 -43 -81 -116 -124 -213 -124
-177 0 -284 180 -202 341 51 101 154 146 267 118z m395 -594 l0 -65 -62 0
c-105 0 -201 -59 -248 -151 -18 -35 -20 -59 -20 -261 0 -203 2 -227 21 -268
44 -97 121 -143 242 -144 l78 -1 -3 -55 -3 -55 -890 0 -890 0 -3 67 -3 68 306
315 c168 174 305 324 305 334 0 9 -12 36 -27 59 -79 121 -299 124 -402 7 -38
-44 -57 -83 -72 -154 -9 -42 -14 -49 -37 -53 -64 -9 -62 -17 -62 213 l0 209
885 0 885 0 0 -65z"/>
<path d="M1096 871 l-239 -239 13 -48 c17 -58 80 -126 135 -144 60 -20 180 -9
241 23 61 31 121 97 129 141 3 17 5 137 3 266 -3 226 -4 235 -23 238 -15 2
-85 -63 -259 -237z m224 -70 c0 -169 -1 -180 -23 -212 -82 -122 -290 -132
-352 -17 l-20 38 185 185 c102 102 190 185 197 185 10 0 13 -42 13 -179z"/>
</g>
</svg>
